<?xml version="1.0" standalone="no"?>
<!DOCTYPE svg PUBLIC "-//W3C//DTD SVG 20010904//EN"
 "http://www.w3.org/TR/2001/REC-SVG-20010904/DTD/svg10.dtd">
<svg version="1.0" xmlns="http://www.w3.org/2000/svg"
 width="192.000000pt" height="192.000000pt" viewBox="0 0 192.000000 192.000000"
 preserveAspectRatio="xMidYMid meet">
<metadata>
Created by potrace 1.16, written by Peter Selinger 2001-2019
</metadata>
<g transform="translate(0.000000,192.000000) scale(0.100000,-0.100000)"
fill="#000000" stroke="none">
<path d="M0 960 l0 -960 960 0 960 0 0 960 0 960 -960 0 -960 0 0 -960z m1421
345 c149 -52 234 -188 234 -375 0 -250 -147 -400 -381 -388 -217 10 -358 183
-341 418 12 168 98 295 234 345 52 19 198 19 254 0z m-591 -35 c0 -38 -15 -60
-241 -338 l-240 -297 245 -3 246 -2 0 -40 0 -40 -300 0 -300 0 0 43 c0 40 11
56 235 336 129 161 235 295 235 297 0 2 -94 4 -210 4 l-210 0 0 40 0 40 270 0
270 0 0 -40z"/>
<path d="M1206 1234 c-32 -10 -64 -31 -96 -63 -62 -62 -80 -119 -80 -251 0
-89 2 -102 33 -161 39 -78 94 -122 173 -140 109 -24 218 19 275 109 42 66 52
113 47 227 -3 88 -7 107 -33 154 -65 118 -185 166 -319 125z"/>
</g>
</svg>
